# xmcd
#
# Track frame offsets:
#	150
#	11957
#	22582
#	33435
#	43760
#	54377
#	66815
#	78357
#	90290
#	102977
#	114927
#	126287
#	137080
#	148270
#	160242
#	170725
#
# Disc length: 2419 seconds
#
# Revision: 1
# Processed by: cddbd v1.5.1PL2 Copyright (c) Steve Scherf et al.
# Submitted via: EasyCDDAExtractor 9.1.2.1
#
DISCID=d1097110
DTITLE=Patsy Cline - The Collection
DYEAR=1997
DGENRE=Country
TTITLE0=Walking After Midnight
TTITLE1=Lovesick Blues
TTITLE2=I Can See An Angel Walkin'
TTITLE3=Three Cigarettes In An Ashtray
TTITLE4=I Love You, Honey
TTITLE5=A Poor Man's Roses - (Or A Rich Man's Gold)
TTITLE6=Crazy Dreams
TTITLE7=Honky Tonk Merry Go Round
TTITLE8=Fingerprints
TTITLE9=Never No More
TTITLE10=Just Out Of Reach
TTITLE11=Stop Look And Listen
TTITLE12=A Stranger In My Arms
TTITLE13=If I Could Only Stay Asleep
TTITLE14=Pick Me Up On Your Way Down
TTITLE15=I Cried All The Way To The Alter
EXTD=
EXTT0=
EXTT1=
EXTT2=
EXTT3=
EXTT4=
EXTT5=
EXTT6=
EXTT7=
EXTT8=
EXTT9=
EXTT10=
EXTT11=
EXTT12=
EXTT13=
EXTT14=
EXTT15=
PLAYORDER=
